<svg width="42" height="45" viewBox="0 0 42 45" fill="none" xmlns="http://www.w3.org/2000/svg">
<path d="M15.97 1.44286C18.975 -0.293906 22.6789 -0.293886 25.6839 1.44286L36.4095 7.64207C39.4101 9.37654 41.2581 12.5795 41.2581 16.0454V27.3403C41.2581 31.4996 39.0398 35.343 35.4388 37.4243L25.6839 43.063C22.6789 44.7997 18.975 44.7997 15.97 43.063L6.21515 37.4243C2.6141 35.343 0.395834 31.4996 0.395813 27.3403V16.0454C0.395813 12.5793 2.24453 9.37647 5.24542 7.64207L15.97 1.44286ZM5.263 15.9399C3.96903 15.191 2.34926 16.1246 2.34894 17.6196V27.0307C2.34904 30.442 4.14055 33.6026 7.06671 35.3559L14.7806 39.978C16.5919 41.0631 18.8948 39.7585 18.8948 37.647V29.4282C18.8948 25.9648 17.0494 22.7632 14.0521 21.0278L5.263 15.9399ZM39.2776 17.6196C39.2773 16.1245 37.6576 15.1909 36.3636 15.9399L27.5755 21.0278C24.5781 22.7631 22.7318 25.9647 22.7318 29.4282V37.647C22.7318 39.7586 25.0356 41.0634 26.847 39.978L31.1693 37.3872C31.635 36.9885 31.6857 36.3871 31.6907 35.6909C31.6959 35.009 32.3904 34.6243 32.9681 34.9868C33.0892 35.0628 33.2039 35.1383 33.303 35.2075C33.9555 35.488 34.5186 35.3351 34.887 35.1499C36.5701 34.0483 37.8443 32.4678 38.5755 30.6489C38.573 29.3952 37.3419 30.0833 37.4964 28.897C37.6454 27.7529 39.134 27.9289 39.2776 26.4516V17.6196ZM18.8919 33.7729C18.8918 31.6169 17.8223 31.3324 17.2874 31.1987C18.4909 31.1987 18.8919 30.4357 18.8919 29.2934V33.7729ZM8.11066 30.1391C8.37931 29.6753 8.97297 29.517 9.43683 29.7856L12.5726 31.6011C13.0362 31.8696 13.1943 32.4635 12.9261 32.9272C12.6575 33.3911 12.0628 33.5494 11.5989 33.2807L8.46417 31.4653C8.00029 31.1967 7.84202 30.603 8.11066 30.1391ZM33.2659 23.354C33.7298 23.0854 34.3235 23.2436 34.5921 23.7075C34.8605 24.1713 34.7024 24.7651 34.2386 25.0337L31.1028 26.8491C30.639 27.1177 30.0453 26.9595 29.7767 26.4956C29.5081 26.0317 29.6663 25.438 30.1302 25.1694L33.2659 23.354ZM8.11066 23.5132C8.37931 23.0493 8.97297 22.891 9.43683 23.1597L12.5726 24.9751C13.0362 25.2437 13.1943 25.8375 12.9261 26.3013C12.6575 26.7651 12.0628 26.9234 11.5989 26.6548L8.46417 24.8393C8.00029 24.5707 7.84202 23.977 8.11066 23.5132ZM7.62335 15.063L14.6732 19.144V19.1391L7.61652 15.0561C7.6188 15.0584 7.62107 15.0607 7.62335 15.063ZM25.8148 3.85008C22.7274 1.99336 18.865 1.99932 15.7835 3.86571L7.0423 9.16063C5.78029 9.92499 5.79853 11.7615 7.0755 12.5005L15.9886 17.6577C19.0005 19.4003 22.7149 19.3974 25.7239 17.6499L34.6028 12.4927C35.8798 11.751 35.8938 9.91195 34.6282 9.15086L25.8148 3.85008ZM20.8011 7.94872C20.9879 7.94374 21.1785 7.99309 21.348 8.10106L26.5267 11.4009C26.9787 11.6889 27.1116 12.2886 26.8235 12.7407C26.5355 13.1928 25.9358 13.3256 25.4837 13.0376L21.7962 10.688V15.3862C21.7962 15.9221 21.3623 16.3567 20.8265 16.3569C20.2905 16.3569 19.8558 15.9222 19.8558 15.3862V10.6479L16.1068 13.0376C15.6547 13.3256 15.054 13.1928 14.7659 12.7407C14.4782 12.2888 14.6111 11.6889 15.0628 11.4009L20.2425 8.10106C20.4121 7.99301 20.6024 7.94366 20.7894 7.94872H20.8011ZM20.8704 3.5825C20.8881 3.58333 20.9056 3.58463 20.9232 3.58641C20.9382 3.58791 20.9531 3.59006 20.9681 3.59227C20.9831 3.59451 20.9981 3.59714 21.013 3.60008C21.0303 3.60349 21.0475 3.60742 21.0648 3.6118C21.0759 3.61462 21.087 3.61738 21.098 3.62059C21.1166 3.62604 21.1352 3.63154 21.1536 3.63817C21.1664 3.64275 21.1791 3.6477 21.1917 3.65282C21.209 3.65989 21.2264 3.66712 21.2435 3.67528C21.2552 3.68084 21.2662 3.6878 21.2776 3.69383C21.2885 3.69958 21.3001 3.70423 21.3109 3.71043L31.4056 9.53465C31.8696 9.80252 32.0286 10.3957 31.761 10.8598C31.4932 11.3242 30.8992 11.4842 30.4349 11.2163L20.8235 5.67039L11.1165 11.2182C10.6512 11.4842 10.0583 11.3222 9.7923 10.8569C9.52634 10.3915 9.6882 9.79865 10.1536 9.5327L20.3441 3.70848C20.353 3.70336 20.3623 3.69864 20.3714 3.69383C20.3849 3.68668 20.3986 3.67982 20.4124 3.67332C20.4314 3.66436 20.4507 3.65654 20.47 3.64891C20.4797 3.6451 20.4895 3.64167 20.4993 3.63817C20.5139 3.63293 20.5285 3.62802 20.5433 3.62352C20.5633 3.61742 20.5834 3.61172 20.6038 3.60692C20.6142 3.60447 20.6246 3.60218 20.6351 3.60008C20.651 3.59689 20.6669 3.59369 20.6829 3.59129C20.7021 3.58844 20.7213 3.58712 20.7405 3.58543C20.7535 3.58427 20.7665 3.58314 20.7796 3.5825C20.7877 3.58212 20.7959 3.58171 20.804 3.58153H20.8519C20.8581 3.58169 20.8642 3.58223 20.8704 3.5825Z" fill="white"/>
</svg>